<mxfile host="app.diagrams.net" agent="Mozilla/5.0 (Windows NT 10.0; Win64; x64) AppleWebKit/537.36 (KHTML, like Gecko) Chrome/132.0.0.0 Safari/537.36" version="26.0.11">
  <diagram name="Page-1" id="Y5aBT3LR-qTpcmY37s64">
    <mxGraphModel dx="2049" dy="1054" grid="1" gridSize="10" guides="1" tooltips="1" connect="1" arrows="1" fold="1" page="1" pageScale="1" pageWidth="850" pageHeight="1100" math="0" shadow="0">
      <root>
        <mxCell id="0" />
        <mxCell id="1" parent="0" />
        <mxCell id="Kly_P5LQUFmeKaouC2qw-29" style="edgeStyle=orthogonalEdgeStyle;rounded=0;orthogonalLoop=1;jettySize=auto;html=1;exitX=0.5;exitY=1;exitDx=0;exitDy=0;entryX=0.5;entryY=0;entryDx=0;entryDy=0;fontSize=16;" edge="1" parent="1" source="2" target="3">
          <mxGeometry relative="1" as="geometry">
            <mxPoint x="851" y="130" as="targetPoint" />
            <Array as="points" />
          </mxGeometry>
        </mxCell>
        <mxCell id="2" value="Start" style="whiteSpace=wrap;strokeWidth=2;arcSize=100;absoluteArcSize=1;rounded=1;fontSize=16;labelBackgroundColor=none;fillColor=#ffe6cc;strokeColor=#d79b00;" parent="1" vertex="1">
          <mxGeometry x="803" y="40" width="95" height="54" as="geometry" />
        </mxCell>
        <mxCell id="Kly_P5LQUFmeKaouC2qw-49" style="edgeStyle=orthogonalEdgeStyle;rounded=0;orthogonalLoop=1;jettySize=auto;html=1;exitX=1;exitY=0.5;exitDx=0;exitDy=0;entryX=0.5;entryY=1;entryDx=0;entryDy=0;" edge="1" parent="1" source="3" target="Kly_P5LQUFmeKaouC2qw-35">
          <mxGeometry relative="1" as="geometry" />
        </mxCell>
        <mxCell id="Kly_P5LQUFmeKaouC2qw-51" value="No" style="edgeLabel;html=1;align=center;verticalAlign=middle;resizable=0;points=[];fontSize=16;" vertex="1" connectable="0" parent="Kly_P5LQUFmeKaouC2qw-49">
          <mxGeometry x="-0.2516" relative="1" as="geometry">
            <mxPoint as="offset" />
          </mxGeometry>
        </mxCell>
        <mxCell id="3" value="Waste Detected" style="rhombus;strokeWidth=2;whiteSpace=wrap;fontSize=16;fillColor=#f8cecc;gradientColor=#ea6b66;strokeColor=#b85450;" parent="1" vertex="1">
          <mxGeometry x="767" y="150" width="167" height="110" as="geometry" />
        </mxCell>
        <mxCell id="4" value="Capture Image" style="whiteSpace=wrap;strokeWidth=2;fontSize=16;fillColor=#d5e8d4;gradientColor=#97d077;strokeColor=#82b366;" parent="1" vertex="1">
          <mxGeometry x="769" y="339" width="165" height="54" as="geometry" />
        </mxCell>
        <mxCell id="Kly_P5LQUFmeKaouC2qw-40" style="edgeStyle=orthogonalEdgeStyle;rounded=0;orthogonalLoop=1;jettySize=auto;html=1;exitX=0;exitY=0.5;exitDx=0;exitDy=0;entryX=0.5;entryY=0;entryDx=0;entryDy=0;fontSize=16;" edge="1" parent="1" source="5" target="6">
          <mxGeometry relative="1" as="geometry" />
        </mxCell>
        <mxCell id="Kly_P5LQUFmeKaouC2qw-41" style="edgeStyle=orthogonalEdgeStyle;rounded=0;orthogonalLoop=1;jettySize=auto;html=1;exitX=0;exitY=0.5;exitDx=0;exitDy=0;entryX=0.5;entryY=0;entryDx=0;entryDy=0;fontSize=16;" edge="1" parent="1" source="5" target="7">
          <mxGeometry relative="1" as="geometry" />
        </mxCell>
        <mxCell id="Kly_P5LQUFmeKaouC2qw-42" style="edgeStyle=orthogonalEdgeStyle;rounded=0;orthogonalLoop=1;jettySize=auto;html=1;exitX=1;exitY=0.5;exitDx=0;exitDy=0;entryX=0.5;entryY=0;entryDx=0;entryDy=0;fontSize=16;" edge="1" parent="1" source="5" target="9">
          <mxGeometry relative="1" as="geometry" />
        </mxCell>
        <mxCell id="Kly_P5LQUFmeKaouC2qw-43" style="edgeStyle=orthogonalEdgeStyle;rounded=0;orthogonalLoop=1;jettySize=auto;html=1;exitX=1;exitY=0.5;exitDx=0;exitDy=0;entryX=0.5;entryY=0;entryDx=0;entryDy=0;fontSize=16;" edge="1" parent="1" source="5" target="8">
          <mxGeometry relative="1" as="geometry" />
        </mxCell>
        <mxCell id="5" value="Classify Waste" style="rhombus;strokeWidth=2;whiteSpace=wrap;fontSize=16;fillColor=#fff2cc;strokeColor=#d6b656;gradientColor=#ffd966;" parent="1" vertex="1">
          <mxGeometry x="710" y="443" width="280" height="156" as="geometry" />
        </mxCell>
        <mxCell id="Kly_P5LQUFmeKaouC2qw-48" style="edgeStyle=orthogonalEdgeStyle;rounded=0;orthogonalLoop=1;jettySize=auto;html=1;exitX=0.5;exitY=1;exitDx=0;exitDy=0;entryX=0.5;entryY=0;entryDx=0;entryDy=0;fontSize=16;" edge="1" parent="1" source="6" target="10">
          <mxGeometry relative="1" as="geometry" />
        </mxCell>
        <mxCell id="6" value="Rotate bin to Metal Compartment" style="whiteSpace=wrap;strokeWidth=2;fontSize=16;fillColor=#e1d5e7;strokeColor=#9673a6;" parent="1" vertex="1">
          <mxGeometry x="240" y="588" width="260" height="78" as="geometry" />
        </mxCell>
        <mxCell id="Kly_P5LQUFmeKaouC2qw-47" style="edgeStyle=orthogonalEdgeStyle;rounded=0;orthogonalLoop=1;jettySize=auto;html=1;exitX=0.5;exitY=1;exitDx=0;exitDy=0;entryX=0.5;entryY=0;entryDx=0;entryDy=0;fontSize=16;fillColor=#dae8fc;strokeColor=#6c8ebf;" edge="1" parent="1" source="7" target="11">
          <mxGeometry relative="1" as="geometry" />
        </mxCell>
        <mxCell id="7" value="Rotate bin to Glass Compartment" style="whiteSpace=wrap;strokeWidth=2;fontSize=16;fillColor=#dae8fc;strokeColor=#6c8ebf;" parent="1" vertex="1">
          <mxGeometry x="507" y="684" width="260" height="78" as="geometry" />
        </mxCell>
        <mxCell id="Kly_P5LQUFmeKaouC2qw-46" style="edgeStyle=orthogonalEdgeStyle;rounded=0;orthogonalLoop=1;jettySize=auto;html=1;exitX=0.5;exitY=1;exitDx=0;exitDy=0;entryX=0.5;entryY=0;entryDx=0;entryDy=0;fontSize=16;" edge="1" parent="1" source="8" target="12">
          <mxGeometry relative="1" as="geometry" />
        </mxCell>
        <mxCell id="8" value="Rotate bin to Plastic Compartment" style="whiteSpace=wrap;strokeWidth=2;fontSize=16;fillColor=#f8cecc;strokeColor=#b85450;" parent="1" vertex="1">
          <mxGeometry x="934" y="684" width="260" height="78" as="geometry" />
        </mxCell>
        <mxCell id="Kly_P5LQUFmeKaouC2qw-45" style="edgeStyle=orthogonalEdgeStyle;rounded=0;orthogonalLoop=1;jettySize=auto;html=1;exitX=0.5;exitY=1;exitDx=0;exitDy=0;entryX=0.5;entryY=0;entryDx=0;entryDy=0;fontSize=16;" edge="1" parent="1" source="9" target="13">
          <mxGeometry relative="1" as="geometry" />
        </mxCell>
        <mxCell id="9" value="Rotate bin to Paper/Cardboard Compartment" style="whiteSpace=wrap;strokeWidth=2;fontSize=16;fillColor=#d5e8d4;strokeColor=#82b366;" parent="1" vertex="1">
          <mxGeometry x="1200" y="564" width="260" height="102" as="geometry" />
        </mxCell>
        <mxCell id="10" value="Drop Metal Waste" style="whiteSpace=wrap;strokeWidth=2;rounded=1;absoluteArcSize=0;arcSize=46;fontSize=16;fillColor=#e1d5e7;strokeColor=#9673a6;" parent="1" vertex="1">
          <mxGeometry x="277.5" y="804" width="185" height="80" as="geometry" />
        </mxCell>
        <mxCell id="11" value="Drop Glass Waste" style="whiteSpace=wrap;strokeWidth=2;rounded=1;absoluteArcSize=0;arcSize=46;fontSize=16;fillColor=#dae8fc;strokeColor=#6c8ebf;" parent="1" vertex="1">
          <mxGeometry x="545.5" y="804" width="184.5" height="78" as="geometry" />
        </mxCell>
        <mxCell id="12" value="Drop Plastic Waste" style="whiteSpace=wrap;strokeWidth=2;rounded=1;absoluteArcSize=0;arcSize=46;fontSize=16;fillColor=#f8cecc;strokeColor=#b85450;" parent="1" vertex="1">
          <mxGeometry x="974" y="804" width="180.5" height="80" as="geometry" />
        </mxCell>
        <mxCell id="13" value="Drop Paper/Cardboard Waste" style="whiteSpace=wrap;strokeWidth=2;rounded=1;absoluteArcSize=0;arcSize=46;fontSize=16;fillColor=#d5e8d4;strokeColor=#82b366;" parent="1" vertex="1">
          <mxGeometry x="1215" y="804" width="230" height="78" as="geometry" />
        </mxCell>
        <mxCell id="15" value="Yes" style="curved=1;startArrow=none;endArrow=block;exitX=0.5;exitY=1;entryX=0.5;entryY=0;fontSize=16;" parent="1" source="3" target="4" edge="1">
          <mxGeometry relative="1" as="geometry">
            <Array as="points" />
          </mxGeometry>
        </mxCell>
        <mxCell id="16" value="" style="curved=1;startArrow=none;endArrow=block;exitX=0.5;exitY=1;entryX=0.5;entryY=0;fontSize=16;" parent="1" source="4" target="5" edge="1">
          <mxGeometry relative="1" as="geometry">
            <Array as="points" />
          </mxGeometry>
        </mxCell>
        <mxCell id="Kly_P5LQUFmeKaouC2qw-38" style="edgeStyle=orthogonalEdgeStyle;rounded=0;orthogonalLoop=1;jettySize=auto;html=1;exitX=0.5;exitY=0;exitDx=0;exitDy=0;entryX=0.5;entryY=0;entryDx=0;entryDy=0;fontSize=16;" edge="1" parent="1" source="Kly_P5LQUFmeKaouC2qw-35" target="3">
          <mxGeometry relative="1" as="geometry" />
        </mxCell>
        <mxCell id="Kly_P5LQUFmeKaouC2qw-35" value="Sleep&amp;nbsp;" style="rounded=1;whiteSpace=wrap;html=1;fontSize=16;fillColor=#f5f5f5;gradientColor=#b3b3b3;strokeColor=#666666;" vertex="1" parent="1">
          <mxGeometry x="974" y="120" width="120" height="60" as="geometry" />
        </mxCell>
      </root>
    </mxGraphModel>
  </diagram>
</mxfile>
